<?xml version="1.0" encoding="UTF-8"?>
<svg version="1.1" xmlns="http://www.w3.org/2000/svg" width="638" height="418">
<path d="M0 0 C0.85751358 -0.00315216 1.71502716 -0.00630432 2.598526 -0.009552 C3.52563889 -0.00752777 4.45275177 -0.00550354 5.40795898 -0.00341797 C6.35718735 -0.00437469 7.30641571 -0.00533142 8.28440857 -0.00631714 C10.29263373 -0.00699827 12.30086109 -0.00514866 14.30908203 -0.00097656 C17.39482529 0.00437852 20.48042337 -0.00092687 23.56616211 -0.00732422 C25.51342806 -0.00666354 27.46069392 -0.00538259 29.40795898 -0.00341797 C30.3370961 -0.0054422 31.26623322 -0.00746643 32.223526 -0.009552 C33.50506813 -0.00482376 33.50506813 -0.00482376 34.8125 0 C35.56813736 0.00079559 36.32377472 0.00159119 37.10231018 0.00241089 C38.84155273 0.12939453 38.84155273 0.12939453 39.84155273 1.12939453 C39.93917497 3.46966577 39.97152877 5.78037834 39.96180725 8.12110901 C39.96308889 9.23107511 39.96308889 9.23107511 39.96439642 10.36346477 C39.96605343 12.86171866 39.96052627 15.35990652 39.95507812 17.8581543 C39.95479627 19.64153034 39.95495394 21.4249065 39.95552063 23.20828247 C39.95580869 28.06551644 39.94991061 32.92272594 39.94294667 37.7799542 C39.93671452 42.85020402 39.93610945 47.92045434 39.93492126 52.9907074 C39.93180754 62.59903146 39.92359359 72.20734421 39.91357177 81.81566328 C39.90241192 92.75138981 39.89690051 103.68711687 39.89187634 114.62284768 C39.88141101 137.12503625 39.86381077 159.62721476 39.84155273 182.12939453 C40.59364014 182.12415771 41.34572754 182.1189209 42.12060547 182.11352539 C45.50674616 182.09282226 48.89287358 182.07975577 52.27905273 182.06689453 C53.46305664 182.05851563 54.64706055 182.05013672 55.86694336 182.04150391 C56.99165039 182.03828125 58.11635742 182.03505859 59.27514648 182.03173828 C60.31727295 182.02650146 61.35939941 182.02126465 62.43310547 182.01586914 C64.84155273 182.12939453 64.84155273 182.12939453 65.84155273 183.12939453 C65.84155273 189.39939453 65.84155273 195.66939453 65.84155273 202.12939453 C-38.43844727 202.12939453 -142.71844727 202.12939453 -250.15844727 202.12939453 C-250.15844727 183.12939453 -250.15844727 183.12939453 -249.15844727 182.12939453 C-246.49243187 182.04085106 -243.85175327 182.01407553 -241.18579102 182.03173828 C-240.47910278 182.03274536 -239.77241455 182.03375244 -239.04431152 182.03479004 C-236.39484035 182.04003708 -233.74539224 182.05399825 -231.09594727 182.06689453 C-225.17657227 182.08751953 -219.25719727 182.10814453 -213.15844727 182.12939453 C-213.15844727 159.68939453 -213.15844727 137.24939453 -213.15844727 114.12939453 C-197.64844727 114.12939453 -182.13844727 114.12939453 -166.15844727 114.12939453 C-166.15844727 136.56939453 -166.15844727 159.00939453 -166.15844727 182.12939453 C-158.89844727 182.12939453 -151.63844727 182.12939453 -144.15844727 182.12939453 C-144.15844727 151.10939453 -144.15844727 120.08939453 -144.15844727 88.12939453 C-128.97844727 88.12939453 -113.79844727 88.12939453 -98.15844727 88.12939453 C-96.2915715 89.9962703 -97.03838228 92.67220901 -97.0340271 95.15571594 C-97.03762238 96.02173935 -97.04121765 96.88776276 -97.04492188 97.7800293 C-97.04477585 98.68725739 -97.04462982 99.59448547 -97.04447937 100.52920532 C-97.04517886 103.54309438 -97.05297292 106.55692246 -97.06079102 109.57080078 C-97.06265507 111.65445421 -97.06407903 113.73810807 -97.06507874 115.82176208 C-97.06890492 121.317629 -97.07873607 126.81346966 -97.08978271 132.30932617 C-97.09999467 137.9127568 -97.10457589 143.51619166 -97.10961914 149.11962891 C-97.12035825 160.12289753 -97.13795586 171.12613975 -97.15844727 182.12939453 C-89.89844727 182.12939453 -82.63844727 182.12939453 -75.15844727 182.12939453 C-75.15844727 140.54939453 -75.15844727 98.96939453 -75.15844727 56.12939453 C-59.97844727 56.12939453 -44.79844727 56.12939453 -29.15844727 56.12939453 C-29.15844727 97.70939453 -29.15844727 139.28939453 -29.15844727 182.12939453 C-21.56844727 182.12939453 -13.97844727 182.12939453 -6.15844727 182.12939453 C-6.15844727 122.39939453 -6.15844727 62.66939453 -6.15844727 1.12939453 C-3.85830516 -0.02067652 -2.55728958 0.00268968 0 0 Z " fill="#F87203" transform="translate(411.158447265625,163.87060546875)"/>
<path d="M0 0 C0.35658281 7.01905109 -0.9721989 13.73253311 -2.15234375 20.6328125 C-2.37462553 21.95596482 -2.59642425 23.27919836 -2.81776428 24.60250854 C-3.39920216 28.07018817 -3.98758074 31.53665561 -4.57733154 35.00292969 C-5.05699405 37.82904494 -5.53181013 40.65596407 -6.00635433 43.48294258 C-6.98870165 49.33469268 -7.97489803 55.1857956 -8.96850586 61.03564453 C-9.14393417 62.06932159 -9.31936249 63.10299866 -9.50010681 64.16799927 C-9.96249147 66.78750622 -10.46647552 69.39415451 -11 72 C-16.2615994 69.1345749 -20.46079894 65.24311706 -24.91601562 61.29492188 C-25.51220703 60.77349609 -26.10839844 60.25207031 -26.72265625 59.71484375 C-27.25640869 59.24167725 -27.79016113 58.76851074 -28.34008789 58.28100586 C-30.13268675 56.8976015 -31.94896585 55.94866954 -34 55 C-40.8183453 62.21880453 -47.47280121 69.45602527 -53.68359375 77.2109375 C-57.35579387 81.63243984 -61.29518129 85.79865503 -65.21484375 90 C-67.97416308 92.95951067 -70.64860241 95.98429987 -73.29296875 99.046875 C-75.32808373 101.37538184 -77.41541032 103.65321013 -79.5 105.9375 C-83.11268759 109.92071965 -86.41479369 114.04432802 -89.58984375 118.3828125 C-90.05519531 118.91648437 -90.52054688 119.45015625 -91 120 C-91.66 120 -92.32 120 -93 120 C-93.21398437 120.53109375 -93.42796875 121.0621875 -93.6484375 121.609375 C-95.51344549 124.90817526 -98.04224242 127.50991708 -100.625 130.25 C-101.140625 130.80429688 -101.65625 131.35859375 -102.1875 131.9296875 C-103.45425035 133.2902712 -104.72657815 134.64565837 -106 136 C-110.08931941 134.35044362 -112.97964822 131.42596684 -116.125 128.4375 C-119.76403407 124.81366093 -119.76403407 124.81366093 -124 122 C-124 121.34 -124 120.68 -124 120 C-124.598125 119.71125 -125.19625 119.4225 -125.8125 119.125 C-128 118 -128 118 -131 116 C-131 115.34 -131 114.68 -131 114 C-131.556875 113.7525 -132.11375 113.505 -132.6875 113.25 C-135.39971127 111.78393985 -137.63587365 109.97010529 -140 108 C-141.31554021 109.28857013 -142.62734097 110.58095891 -143.9375 111.875 C-145.03384766 112.95394531 -145.03384766 112.95394531 -146.15234375 114.0546875 C-148.05667999 115.87027192 -148.05667999 115.87027192 -149 118 C-149.66 118 -150.32 118 -151 118 C-151.38853149 118.87180908 -151.38853149 118.87180908 -151.78491211 119.76123047 C-153.09268394 122.17076788 -154.54469239 123.84589109 -156.44140625 125.8203125 C-157.10720703 126.52027344 -157.77300781 127.22023438 -158.45898438 127.94140625 C-159.15314453 128.66199219 -159.84730469 129.38257813 -160.5625 130.125 C-161.94083831 131.56315539 -163.31723957 133.00317056 -164.69140625 134.4453125 C-165.30185791 135.07969238 -165.91230957 135.71407227 -166.54125977 136.36767578 C-168.08516321 137.95154375 -168.08516321 137.95154375 -169 140 C-169.66 140 -170.32 140 -171 140 C-171.2578125 140.57234375 -171.515625 141.1446875 -171.78125 141.734375 C-173.11365942 144.21128995 -174.65056118 146.1341166 -176.5 148.25 C-177.1084375 148.95640625 -177.716875 149.6628125 -178.34375 150.390625 C-180 152 -180 152 -182 152 C-182.40400024 152.88727783 -182.40400024 152.88727783 -182.81616211 153.79248047 C-183.99867532 155.99752985 -185.22062222 157.51641559 -186.94140625 159.3203125 C-187.52100098 159.93350342 -188.1005957 160.54669434 -188.69775391 161.1784668 C-189.31312012 161.82082275 -189.92848633 162.46317871 -190.5625 163.125 C-191.83275361 164.46676442 -193.10228404 165.80921386 -194.37109375 167.15234375 C-194.99097168 167.80702637 -195.61084961 168.46170898 -196.24951172 169.13623047 C-199.27124296 172.35351028 -202.20262306 175.64848006 -205.1328125 178.94921875 C-207.02894784 181.03179417 -208.9931631 183.02438057 -211 185 C-211.48210937 184.57847656 -211.96421875 184.15695313 -212.4609375 183.72265625 C-213.09257812 183.17480469 -213.72421875 182.62695312 -214.375 182.0625 C-215.00148437 181.51722656 -215.62796875 180.97195312 -216.2734375 180.41015625 C-217.95632334 178.93041376 -217.95632334 178.93041376 -220 178 C-220 177.34 -220 176.68 -220 176 C-220.928125 175.62875 -220.928125 175.62875 -221.875 175.25 C-224.35068687 173.79371361 -224.95125002 172.62187494 -226 170 C-224.71937515 168.2925002 -223.38232443 166.62626404 -222 165 C-221.34 165 -220.68 165 -220 165 C-219.74347656 164.41476563 -219.48695313 163.82953125 -219.22265625 163.2265625 C-217.89437838 160.80765392 -216.43475199 159.26801128 -214.4375 157.375 C-211.85984611 154.95478041 -211.85984611 154.95478041 -210 152 C-209.34 152 -208.68 152 -208 152 C-207.73517822 151.41299316 -207.47035645 150.82598633 -207.19750977 150.22119141 C-205.95987425 147.92557308 -204.63894023 146.34043619 -202.83984375 144.4609375 C-202.2149707 143.80254883 -201.59009766 143.14416016 -200.94628906 142.46582031 C-200.28338867 141.77584961 -199.62048828 141.08587891 -198.9375 140.375 C-197.57612041 138.94077066 -196.21544171 137.50587571 -194.85546875 136.0703125 C-194.19466309 135.37454102 -193.53385742 134.67876953 -192.85302734 133.96191406 C-186.28563423 127.12778978 -186.28563423 127.12778978 -180.390625 119.734375 C-179.93171875 119.16203125 -179.4728125 118.5896875 -179 118 C-178.34 118 -177.68 118 -177 118 C-176.73952881 117.41734375 -176.47905762 116.8346875 -176.21069336 116.234375 C-174.92049427 113.85326952 -173.50131878 112.20075509 -171.62890625 110.25 C-170.97212891 109.5590625 -170.31535156 108.868125 -169.63867188 108.15625 C-168.6109668 107.08890625 -168.6109668 107.08890625 -167.5625 106 C-166.20781286 104.58507606 -164.85488682 103.16846344 -163.50390625 101.75 C-162.90392822 101.12609375 -162.3039502 100.5021875 -161.68579102 99.859375 C-159.93567542 98.00163472 -159.93567542 98.00163472 -158.40600586 95.765625 C-157.94202393 95.18296875 -157.47804199 94.6003125 -157 94 C-156.34 94 -155.68 94 -155 94 C-154.77570313 93.45859375 -154.55140625 92.9171875 -154.3203125 92.359375 C-152.58851134 89.26467706 -150.28380732 86.82074395 -147.875 84.25 C-147.40707031 83.74339844 -146.93914062 83.23679687 -146.45703125 82.71484375 C-145.30873459 81.47280859 -144.15491328 80.23588506 -143 79 C-139.06031959 79.55894779 -137.14973006 81.429403 -134.3125 84.125 C-130.25701467 87.9032902 -126.08825721 91.31776332 -121.6171875 94.58984375 C-121.08351563 95.05519531 -120.54984375 95.52054687 -120 96 C-120 96.66 -120 97.32 -120 98 C-119.41734375 98.26554687 -118.8346875 98.53109375 -118.234375 98.8046875 C-115.93825772 100.03302996 -114.19643982 101.40314939 -112.25 103.125 C-111.63640625 103.66382813 -111.0228125 104.20265625 -110.390625 104.7578125 C-109.93171875 105.16773438 -109.4728125 105.57765625 -109 106 C-107.84960919 104.84960919 -106.69955293 103.69888266 -105.55078125 102.546875 C-104.49083338 101.48959702 -103.42545767 100.43774005 -102.35546875 99.390625 C-95.54061633 92.68345648 -89.51453522 85.49243887 -83.69921875 77.90625 C-83.13847656 77.2771875 -82.57773437 76.648125 -82 76 C-81.34 76 -80.68 76 -80 76 C-79.76410156 75.44570312 -79.52820313 74.89140625 -79.28515625 74.3203125 C-77.6873545 71.43552758 -75.68148991 69.28827968 -73.4375 66.875 C-70.36280814 63.68492491 -70.36280814 63.68492491 -68 60 C-67.34 60 -66.68 60 -66 60 C-65.77441406 59.45601562 -65.54882812 58.91203125 -65.31640625 58.3515625 C-63.58776213 55.26359881 -61.35449856 52.95545026 -58.9375 50.375 C-55.58466353 46.95790247 -55.58466353 46.95790247 -53 43 C-52.34 43 -51.68 43 -51 43 C-51 41.68 -51 40.36 -51 39 C-51.66 38.67 -52.32 38.34 -53 38 C-53 37.34 -53 36.68 -53 36 C-53.54269531 35.76152344 -54.08539063 35.52304688 -54.64453125 35.27734375 C-57.61077225 33.6687852 -60.07009997 31.69066638 -62.6875 29.5625 C-64.14736328 28.38880859 -64.14736328 28.38880859 -65.63671875 27.19140625 C-68 25 -68 25 -69 22 C-63.34547128 19.82874146 -57.66252363 17.88286879 -51.8828125 16.07421875 C-50.59877029 15.6691082 -50.59877029 15.6691082 -49.28878784 15.2558136 C-46.56816308 14.39766821 -43.84667074 13.54232165 -41.125 12.6875 C-37.5645282 11.56822677 -34.00461929 10.4471913 -30.4453125 9.32421875 C-29.14125458 8.91331497 -29.14125458 8.91331497 -27.81085205 8.49411011 C-21.01283609 6.34296059 -14.24669001 4.10319365 -7.50100708 1.7931366 C-2.21269338 0 -2.21269338 0 0 0 Z " fill="#F6770C" transform="translate(462,63)"/>
<path d="M0 0 C5.49925421 -0.04940929 10.99837942 -0.08572395 16.49780273 -0.10986328 C18.36891938 -0.11992567 20.24002028 -0.13357691 22.11108398 -0.15087891 C24.79935591 -0.17511684 27.48742006 -0.18648063 30.17578125 -0.1953125 C31.01337479 -0.20563507 31.85096832 -0.21595764 32.71394348 -0.22659302 C38.65838488 -0.22774341 38.65838488 -0.22774341 42 2 C42.29480735 4.4415753 42.3915097 6.63027634 42.36076355 9.07400513 C42.36332682 9.8107534 42.3658901 10.54750168 42.36853105 11.30657566 C42.37349289 13.78809889 42.35693709 16.26902063 42.34057617 18.75048828 C42.33973042 20.5241596 42.34020403 22.29783198 42.34190369 24.07150269 C42.34276708 28.89776792 42.32508587 33.72381105 42.30418181 38.55002451 C42.28547212 43.58956188 42.28366909 48.62910391 42.28010559 53.66867065 C42.2707683 63.21679813 42.24613179 72.76482298 42.21605712 82.31290519 C42.18256542 93.18092866 42.16604028 104.04895693 42.15097082 114.91701913 C42.11958365 137.27808282 42.06455061 159.63900576 42 182 C27.81 182 13.62 182 -1 182 C-1.02254989 158.56545553 -1.04098086 135.13091981 -1.05181217 111.69636726 C-1.0569744 100.81596616 -1.06401572 89.93557226 -1.07543945 79.05517578 C-1.08538851 69.57482011 -1.09185396 60.09446966 -1.09408849 50.61410892 C-1.09539522 45.59164146 -1.0984787 40.56918892 -1.10573006 35.54672623 C-1.11249376 30.82397029 -1.11461624 26.10123551 -1.11310768 21.37847519 C-1.11338385 19.64097733 -1.1153869 17.90347879 -1.11920547 16.16598511 C-1.12414817 13.8019654 -1.12299613 11.43802653 -1.12025452 9.07400513 C-1.12316736 8.37946012 -1.1260802 7.68491511 -1.12908131 6.96932328 C-1.11412121 2.22824242 -1.11412121 2.22824242 0 0 Z " fill="#F97103" transform="translate(407,164)"/>
<path d="M0 0 C104.28 0 208.56 0 316 0 C316 6.27 316 12.54 316 19 C211.72 19 107.44 19 0 19 C0 12.73 0 6.46 0 0 Z " fill="#040303" transform="translate(161,347)"/>
<path d="M0 0 C14.52 0 29.04 0 44 0 C44 41.25 44 82.5 44 125 C29.48 125 14.96 125 0 125 C0 83.75 0 42.5 0 0 Z " fill="#F97203" transform="translate(337,221)"/>
<path d="M0 0 C14.19 0 28.38 0 43 0 C43 22.11 43 44.22 43 67 C28.81 67 14.62 67 0 67 C0 44.89 0 22.78 0 0 Z " fill="#F97202" transform="translate(200,279)"/>
<path d="M0 0 C1.65 0.33 3.3 0.66 5 1 C5 60.73 5 120.46 5 182 C13.25 182 21.5 182 30 182 C30 182.33 30 182.66 30 183 C-23.79 183 -77.58 183 -133 183 C-133.33 179.37 -133.66 175.74 -134 172 C-133.34 171.67 -132.68 171.34 -132 171 C-132 174.63 -132 178.26 -132 182 C-124.74 182 -117.48 182 -110 182 C-110 140.42 -110 98.84 -110 56 C-94.82 56 -79.64 56 -64 56 C-64 97.58 -64 139.16 -64 182 C-56.41 182 -48.82 182 -41 182 C-41 122.27 -41 62.54 -41 1 C-39.68 1.33 -38.36 1.66 -37 2 C-37.99 2 -38.98 2 -40 2 C-40 61.4 -40 120.8 -40 182 C-25.81 182 -11.62 182 3 182 C3 122.6 3 63.2 3 2 C1.02 1.505 1.02 1.505 -1 1 C-0.67 0.67 -0.34 0.34 0 0 Z M-109 57 C-109 98.25 -109 139.5 -109 182 C-94.48 182 -79.96 182 -65 182 C-65 140.75 -65 99.5 -65 57 C-79.52 57 -94.04 57 -109 57 Z " fill="#DE8C47" transform="translate(446,164)"/>
<path d="M0 0 C15.18 0 30.36 0 46 0 C47 1 47 1 47.12025452 3.77772522 C47.11803391 5.01904709 47.11581329 6.26036896 47.11352539 7.53930664 C47.11367142 8.22220261 47.11381744 8.90509857 47.1139679 9.60868835 C47.11326876 11.87587614 47.1054764 14.14298274 47.09765625 16.41015625 C47.09579207 17.97814387 47.09436817 19.54613207 47.09336853 21.11412048 C47.08954334 25.24876503 47.07971306 29.38337466 47.06866455 33.51800537 C47.05845044 37.73400398 47.05387091 41.95000822 47.04882812 46.16601562 C47.03809079 54.44402647 47.02101436 62.7220089 47 71 C46.34 71 45.68 71 45 71 C44.85437301 64.70937884 44.71214825 58.41869205 44.57275391 52.12792969 C44.5251318 49.99867804 44.47666236 47.86944514 44.42724609 45.74023438 C44.08951325 31.15568942 43.95173287 16.58873953 44 2 C30.14 2 16.28 2 2 2 C1.67 32.69 1.34 63.38 1 95 C-33.98 95 -68.96 95 -105 95 C-105 94.67 -105 94.34 -105 94 C-93.12 94 -81.24 94 -69 94 C-69 71.56 -69 49.12 -69 26 C-53.49 26 -37.98 26 -22 26 C-22 48.44 -22 70.88 -22 94 C-14.74 94 -7.48 94 0 94 C0 62.98 0 31.96 0 0 Z M-67 27 C-67 49.11 -67 71.22 -67 94 C-52.81 94 -38.62 94 -24 94 C-24 71.89 -24 49.78 -24 27 C-38.19 27 -52.38 27 -67 27 Z " fill="#E29F65" transform="translate(267,252)"/>
<path d="M0 0 C14.52 0 29.04 0 44 0 C45.26262927 10.10103415 46.28964069 19.33590407 46.1953125 29.375 C46.1924826 30.55094727 46.18965271 31.72689453 46.18673706 32.93847656 C46.17570887 36.62576298 46.15063922 40.31278935 46.125 44 C46.11494769 46.52864228 46.10582583 49.05728844 46.09765625 51.5859375 C46.07582689 57.72404426 46.04252854 63.86200355 46 70 C45.34 70 44.68 70 44 70 C43.85437301 63.70937884 43.71214825 57.41869205 43.57275391 51.12792969 C43.5251318 48.99867804 43.47666236 46.86944514 43.42724609 44.74023438 C43.08951325 30.15568942 42.95173287 15.58873953 43 1 C29.14 1 15.28 1 1 1 C0.67 2.32 0.34 3.64 0 5 C0 3.35 0 1.7 0 0 Z " fill="#EC9349" transform="translate(268,253)"/>
<path d="M0 0 C0.64428711 1.81152344 0.64428711 1.81152344 1 4 C-0.74748644 6.28267265 -2.43162684 8.22229751 -4.4375 10.25 C-4.96666016 10.80429688 -5.49582031 11.35859375 -6.04101562 11.9296875 C-7.34956405 13.29717954 -8.6733804 14.65003189 -10 16 C-10.99 15.67 -11.98 15.34 -13 15 C-11.88266271 13.49428343 -10.75589965 11.99555708 -9.625 10.5 C-8.99851562 9.6646875 -8.37203125 8.829375 -7.7265625 7.96875 C-7.15679687 7.3190625 -6.58703125 6.669375 -6 6 C-5.34 6 -4.68 6 -4 6 C-3.566875 5.071875 -3.566875 5.071875 -3.125 4.125 C-2 2 -2 2 0 0 Z " fill="#EC842E" transform="translate(386,133)"/>
<path d="M0 0 C-4.08314648 2.99430742 -8.00551625 3.74649239 -12.890625 4.5703125 C-14.97726162 4.79334973 -14.97726162 4.79334973 -16 6 C-17.99958364 6.04080783 -20.00045254 6.04254356 -22 6 C-18.67091833 3.78061222 -15.31854136 2.57651775 -11.5625 1.3125 C-10.89412109 1.07466797 -10.22574219 0.83683594 -9.53710938 0.59179688 C-3.4625144 -1.46116337 -3.4625144 -1.46116337 0 0 Z " fill="#E6914A" transform="translate(442,71)"/>
<path d="M0 0 C0.33 1.32 0.66 2.64 1 4 C-1.64 6.31 -4.28 8.62 -7 11 C-7.66 10.67 -8.32 10.34 -9 10 C-6.03 6.7 -3.06 3.4 0 0 Z " fill="#EB8531" transform="translate(372,149)"/>
<path d="M0 0 C0.33 0.99 0.66 1.98 1 3 C-0.07421875 4.7890625 -0.07421875 4.7890625 -1.6875 6.625 C-2.20699219 7.23601562 -2.72648437 7.84703125 -3.26171875 8.4765625 C-5.181038 10.15866252 -6.50835704 10.59829721 -9 11 C-8.06558465 9.72689688 -7.12732889 8.456612 -6.1875 7.1875 C-5.66542969 6.47980469 -5.14335937 5.77210938 -4.60546875 5.04296875 C-3.16871123 3.21468607 -1.68184237 1.60103312 0 0 Z " fill="#EA9344" transform="translate(277,188)"/>
<path d="M0 0 C0.33 0.66 0.66 1.32 1 2 C-0.76227632 5.61730402 -2.64326421 7.80075931 -6 10 C-6.66 9.67 -7.32 9.34 -8 9 C-7.67 8.34 -7.34 7.68 -7 7 C-6.34 7 -5.68 7 -5 7 C-4.731875 6.401875 -4.46375 5.80375 -4.1875 5.1875 C-3.01506533 3.02775192 -1.80630718 1.64209744 0 0 Z " fill="#ED9941" transform="translate(247,221)"/>
<path d="M0 0 C0.33 0.66 0.66 1.32 1 2 C0.0625 4.125 0.0625 4.125 -1 6 C-1.66 6 -2.32 6 -3 6 C-3.2475 6.639375 -3.495 7.27875 -3.75 7.9375 C-5 10 -5 10 -7.078125 10.62890625 C-8.02945312 10.81259766 -8.02945312 10.81259766 -9 11 C-8.04956626 9.66102417 -7.08940853 8.32894573 -6.125 7 C-5.59132813 6.2575 -5.05765625 5.515 -4.5078125 4.75 C-4.01023437 4.1725 -3.51265625 3.595 -3 3 C-2.34 3 -1.68 3 -1 3 C-0.67 2.01 -0.34 1.02 0 0 Z " fill="#E88A3A" transform="translate(308,154)"/>
<path d="M0 0 C-4.90924297 3.92739438 -7.73920552 4.43177893 -14 4 C-11.37350692 2.24900461 -9.38191413 1.30690675 -6.4375 0.3125 C-5.65246094 0.04050781 -4.86742187 -0.23148437 -4.05859375 -0.51171875 C-2 -1 -2 -1 0 0 Z " fill="#EA9447" transform="translate(412,80)"/>
<path d="M0 0 C0.33 0.66 0.66 1.32 1 2 C-0.1875 4.5625 -0.1875 4.5625 -2 7 C-3.32 7.33 -4.64 7.66 -6 8 C-4.02 5.36 -2.04 2.72 0 0 Z " fill="#EB9A55" transform="translate(265,201)"/>
<path d="M0 0 C0.33 0.66 0.66 1.32 1 2 C-1.97 2 -4.94 2 -8 2 C-7 0 -7 0 -5.125 -0.6875 C-3 -1 -3 -1 0 0 Z " fill="#C5620F" transform="translate(427,165)"/>
<path d="M0 0 C0.556875 0.226875 1.11375 0.45375 1.6875 0.6875 C-2.74326923 3.76442308 -2.74326923 3.76442308 -5.625 3.375 C-6.4603125 3.0346875 -6.4603125 3.0346875 -7.3125 2.6875 C-2.88173077 -0.38942308 -2.88173077 -0.38942308 0 0 Z " fill="#E88C2D" transform="translate(440.3125,70.3125)"/>
</svg>
